<svg width="214" height="59" viewBox="0 0 214 59" fill="none" xmlns="http://www.w3.org/2000/svg">
<g clip-path="url(#clip0_366_124)">
<path d="M3.763 0.291935C2.04511 0.601059 0.818043 1.83756 0.179969 3.93274C0.0490826 4.32773 0 9.6172 0 20.9346C0 36.8889 0.0163609 37.3869 0.327217 38.2971C0.768961 39.568 1.4234 40.3579 2.53593 40.959L3.50122 41.4742L10.5364 41.5601L17.5879 41.646L17.6697 48.5154C17.7352 53.3927 17.817 55.5222 17.9479 55.8485C18.2587 56.5698 19.3713 57.7548 20.0748 58.1155C20.4184 58.2872 20.8274 58.4933 20.9746 58.5791C21.3673 58.7852 53.091 58.7852 53.4673 58.5791C53.6145 58.4933 54.0072 58.3044 54.3181 58.1498C55.0216 57.8407 56.0523 56.7759 56.3632 56.0718C56.9358 54.7151 56.9358 54.509 56.9358 37.9708C56.9358 22.2226 56.9194 21.5185 56.6249 20.6427C56.1505 19.2859 55.3815 18.4273 53.9908 17.7231C53.5 17.4827 52.5184 17.4312 46.4648 17.3453L39.5115 17.2595L39.4297 10.39C39.3479 4.43077 39.3152 3.4347 39.0697 2.9195C38.6934 2.07799 38.0063 1.33952 37.0574 0.755622L36.2393 0.257587L20.2057 0.240414C11.3872 0.22324 3.99205 0.240414 3.763 0.291935ZM33.1144 6.18248C33.9651 6.50878 34.0306 6.93812 34.0306 12.1417C34.0306 14.7693 33.9651 17.0018 33.8997 17.1221C33.8179 17.2595 32.0673 17.3281 27.4044 17.3797C21.1055 17.4312 21.0073 17.4312 20.2547 17.8262C19.4203 18.2727 18.2751 19.4577 17.9479 20.2305C17.8006 20.5568 17.7352 22.8237 17.6697 28.1647L17.5879 35.6352L12.2706 35.6867C9.34205 35.7039 6.78976 35.6867 6.57707 35.6352C6.38074 35.5837 6.06988 35.2917 5.88991 34.9826C5.57905 34.4502 5.56269 34.0552 5.56269 20.9003C5.56269 6.25117 5.54633 6.5603 6.42982 6.18248C6.92064 5.9764 32.5908 5.95922 33.1144 6.18248ZM50.8659 23.6309L51.3731 24.0774V38.0395V51.9845L50.9477 52.4482L50.506 52.8947H37.2864H24.0668L23.6087 52.4825L23.1506 52.0703L23.1179 38.2628C23.0688 23.4763 23.0525 23.8541 23.8869 23.4076C24.1977 23.2359 27.2081 23.1843 37.3355 23.1843H50.3587L50.8659 23.6309Z" fill="black"/>
<path d="M133.259 6.38857C133.21 6.50879 133.194 16.5725 133.21 28.7658L133.259 50.9197L136.433 50.9712C138.184 50.9884 139.689 50.9369 139.771 50.851C139.853 50.7652 139.967 49.958 140.049 49.0306C140.131 48.1032 140.262 47.2789 140.343 47.193C140.425 47.1072 140.671 47.2961 140.965 47.6911C142.503 49.8206 144.581 51.0571 147.657 51.6238C151.011 52.2421 154.528 51.4521 157.391 49.4428C158.438 48.7043 160.091 46.9526 160.778 45.8535C162.381 43.2775 163.265 39.8599 163.281 36.2191C163.281 34.5189 163.199 33.7461 162.758 31.4277C162.398 29.5214 161.482 27.203 160.467 25.6402C159.518 24.1632 157.293 22.1539 155.919 21.5357C153.514 20.4366 152.303 20.1961 149.669 20.3164C147.624 20.4022 146.25 20.6942 145.006 21.2953C144.614 21.4842 144.27 21.6387 144.221 21.6387C143.943 21.6387 142.143 23.0985 141.39 23.94C140.916 24.4724 140.491 24.9017 140.442 24.9017C140.409 24.9017 140.376 20.6942 140.376 15.5421V6.18249H136.859C134.192 6.18249 133.308 6.23401 133.259 6.38857ZM150.814 27.3404C152.925 28.2162 154.185 29.3668 155.019 31.1529C155.772 32.7329 156.066 34.0896 156.066 35.8928C156.066 38.4173 155.33 40.856 154.119 42.3157C153.432 43.1401 151.943 44.1877 151.092 44.4453C149.047 45.0807 148.295 45.1322 146.642 44.7544C143.894 44.1361 141.816 42.1955 140.965 39.4477C140.229 37.095 140.212 35.2574 140.9 32.7157C141.701 29.779 144.008 27.6151 146.839 27.1171C147.82 26.9625 150.209 27.0828 150.814 27.3404Z" fill="black"/>
<path d="M77.5505 20.5224C73.6238 21.2609 70.6789 23.2359 68.5683 26.5332C67.4231 28.3193 66.8668 29.6931 66.3433 32.0288C66.0488 33.3855 65.9997 38.7952 66.2778 39.9114C66.376 40.2893 66.5232 40.9247 66.6214 41.3025C67.4558 44.6514 69.4191 47.5709 72.0696 49.4084C73.9183 50.6793 75.8162 51.3662 78.4339 51.7097C79.841 51.8814 80.4954 51.8814 81.9352 51.7097C83.7349 51.4864 83.9475 51.4349 85.7145 50.8167C87.596 50.1641 89.3303 48.9791 90.7864 47.3991C92.357 45.6818 93.9113 42.3157 93.9113 40.6499V40.0145L90.4428 40.0488L86.9907 40.1003L86.3853 41.354C85.6654 42.8481 85.1746 43.4149 84.0948 44.0331C82.8677 44.7372 81.8534 44.9948 80.3318 44.9948C76.2089 44.9948 73.8693 42.5562 73.133 37.49C72.9203 35.9787 73.0839 34.0896 73.5584 32.4924C74.2292 30.277 75.6035 28.594 77.4686 27.6495C78.5648 27.0999 78.6957 27.0656 80.4954 27.0656C82.2787 27.0656 82.4423 27.0999 83.4731 27.6151C85.0764 28.4223 86.009 29.5386 86.6962 31.462L86.8761 31.9429H90.3937H93.9113V31.4449C93.9113 31.1872 93.8459 30.7407 93.7641 30.466C93.6823 30.1912 93.5186 29.6244 93.4041 29.1951C93.0605 27.9758 92.0298 25.9836 91.2118 24.9876C89.9683 23.4591 87.6778 21.8105 86.0254 21.2781C83.0968 20.3164 80.0209 20.0416 77.5505 20.5224Z" fill="black"/>
<path d="M110.272 20.5396C107.9 20.9174 107.245 21.1235 105.446 21.9994C103.548 22.9267 101.143 25.0734 100.014 26.8251C98.3287 29.4355 97.5107 32.4753 97.5107 36.1161C97.5107 38.1769 97.5761 38.7265 98.0342 40.7014C98.5741 42.934 99.7521 45.115 101.421 46.9354C103.613 49.3226 105.364 50.3702 108.881 51.3662C109.994 51.6925 115.099 51.6925 116.326 51.3834C122.297 49.8378 126.175 45.8192 127.467 39.7569C127.778 38.383 127.762 33.3683 127.467 32.2005C126.617 28.8688 125.57 26.8767 123.606 24.8158C121.185 22.257 118.403 20.9518 114.362 20.4366C112.71 20.2305 112.105 20.2477 110.272 20.5396ZM114.919 27.3404C115.279 27.4434 115.655 27.598 115.753 27.6838C115.835 27.7525 116.015 27.8212 116.162 27.8212C116.571 27.8212 118.534 29.4699 119.009 30.2255C119.958 31.7368 120.22 32.4409 120.579 34.3128C121.283 38.1426 119.467 42.5562 116.587 44.0331C115.18 44.7544 114.215 44.9948 112.644 44.9948C108.914 44.9948 106.149 42.8996 105.004 39.2073C104.546 37.7304 104.513 34.6048 104.922 33.1622C105.789 30.2083 107.573 28.2849 110.354 27.3232C111.041 27.0999 114.117 27.0999 114.919 27.3404Z" fill="black"/>
<path d="M178.497 20.5224C176.108 21.0377 174.881 21.5357 173.18 22.7378C171.135 24.1632 169.793 25.8463 168.615 28.388C167.47 30.9125 167.159 32.5096 167.142 35.9787C167.142 39.4993 167.421 41.0277 168.533 43.5351C169.58 45.8878 171.184 47.8628 173.18 49.271C174.587 50.2671 175.192 50.5762 176.828 51.0743C179.397 51.8814 181.376 52.036 184.06 51.6067C186.481 51.2288 187.054 51.0399 189.213 49.958C190.849 49.1508 193.222 46.6263 194.056 44.8231C194.825 43.1744 195.005 42.642 195.054 41.9036L195.103 41.3025H191.913H188.722L188.281 42.1612C187.103 44.4453 184.698 45.6989 181.524 45.6818C178.006 45.6646 175.47 43.9129 174.439 40.7873C173.949 39.3275 173.818 38.1254 174.096 37.9365C174.227 37.8506 178.988 37.7819 184.681 37.7819H195.021V35.412C195.021 34.0381 194.923 32.5611 194.792 31.857C194.367 29.7103 194.334 29.6073 193.5 27.6495C192.764 25.9321 190.866 23.6996 189.131 22.5489C186.268 20.6255 181.933 19.8012 178.497 20.5224ZM183.552 26.7908C186.056 27.6667 187.315 29.0921 187.921 31.7711C188.068 32.4237 188.068 32.7844 187.953 32.9218C187.823 33.0935 186.252 33.145 181 33.145C174.93 33.145 174.227 33.1107 174.129 32.8703C173.85 32.0803 175.47 28.8173 176.583 27.9243C178.301 26.5504 181.376 26.0523 183.552 26.7908Z" fill="black"/>
<path d="M211.039 21.2094C209.255 21.7246 207.701 22.8237 206.703 24.3006C206.359 24.8158 206.016 25.228 205.95 25.2452C205.869 25.2452 205.82 24.9704 205.82 24.6269C205.82 24.3006 205.738 23.4935 205.64 22.8237L205.443 21.6387H202.204H198.948V36.408V51.1773H202.384H205.82V43.9644C205.82 37.1121 205.934 34.828 206.343 33.5744C207.341 30.466 209.255 28.9032 212.74 28.3193L214 28.1132V24.5411V20.9518L212.904 20.969C212.282 20.9861 211.448 21.0892 211.039 21.2094Z" fill="black"/>
<path d="M213.885 46.8839C213.885 47.3991 213.916 47.6224 213.946 47.3476C213.977 47.09 213.977 46.6778 213.946 46.4031C213.916 46.1455 213.885 46.3687 213.885 46.8839Z" fill="black"/>
</g>
<defs>
<clipPath id="clip0_366_124">
<rect width="214" height="58.7337" fill="white"/>
</clipPath>
</defs>
</svg>
