<svg width="57" height="59" viewBox="0 0 57 59" fill="none" xmlns="http://www.w3.org/2000/svg">
<path d="M3.763 0.291938C2.04511 0.601063 0.818043 1.83756 0.179969 3.93274C0.0490826 4.32773 0 9.6172 0 20.9346C0 36.8889 0.0163609 37.3869 0.327217 38.2971C0.768961 39.568 1.4234 40.358 2.53593 40.959L3.50122 41.4742L10.5364 41.5601L17.5879 41.646L17.6697 48.5154C17.7352 53.3927 17.817 55.5222 17.9479 55.8485C18.2587 56.5698 19.3713 57.7548 20.0748 58.1155C20.4184 58.2872 20.8274 58.4933 20.9746 58.5791C21.3673 58.7852 53.091 58.7852 53.4673 58.5791C53.6145 58.4933 54.0072 58.3044 54.3181 58.1498C55.0216 57.8407 56.0523 56.7759 56.3632 56.0718C56.9358 54.7151 56.9358 54.509 56.9358 37.9708C56.9358 22.2226 56.9194 21.5185 56.6249 20.6427C56.1505 19.2859 55.3815 18.4273 53.9908 17.7231C53.5 17.4827 52.5184 17.4312 46.4648 17.3453L39.5115 17.2595L39.4297 10.39C39.3479 4.43078 39.3152 3.43471 39.0697 2.9195C38.6934 2.07799 38.0063 1.33953 37.0574 0.755626L36.2393 0.257591L20.2057 0.240418C11.3872 0.223244 3.99205 0.240418 3.763 0.291938ZM33.1144 6.18248C33.9651 6.50878 34.0306 6.93812 34.0306 12.1417C34.0306 14.7693 33.9651 17.0019 33.8997 17.1221C33.8179 17.2595 32.0673 17.3282 27.4044 17.3797C21.1055 17.4312 21.0073 17.4312 20.2547 17.8262C19.4203 18.2727 18.2751 19.4577 17.9479 20.2305C17.8006 20.5568 17.7352 22.8237 17.6697 28.1647L17.5879 35.6352L12.2706 35.6867C9.34205 35.7039 6.78976 35.6867 6.57707 35.6352C6.38074 35.5837 6.06988 35.2917 5.88991 34.9826C5.57905 34.4502 5.56269 34.0552 5.56269 20.9003C5.56269 6.25118 5.54633 6.5603 6.42982 6.18248C6.92064 5.9764 32.5908 5.95923 33.1144 6.18248ZM50.8659 23.6309L51.3731 24.0774V38.0395V51.9845L50.9477 52.4482L50.506 52.8947H37.2864H24.0668L23.6087 52.4825L23.1506 52.0703L23.1179 38.2628C23.0688 23.4763 23.0525 23.8541 23.8869 23.4076C24.1977 23.2359 27.2081 23.1843 37.3355 23.1843H50.3587L50.8659 23.6309Z" fill="black"/>
</svg>
