<svg width="48" height="48" viewBox="0 0 48 48" fill="none" xmlns="http://www.w3.org/2000/svg">
<g clip-path="url(#clip0_372_13)">
<path d="M3.17241 0.047557C1.72414 0.301199 0.689655 1.31577 0.151724 3.0349C0.0413793 3.359 0 7.69909 0 16.9852C0 30.076 0.0137931 30.4846 0.275862 31.2314C0.648276 32.2742 1.2 32.9224 2.13793 33.4156L2.95172 33.8383L8.88276 33.9088L14.8276 33.9792L14.8966 39.6157C14.9517 43.6176 15.0207 45.3649 15.131 45.6327C15.3931 46.2245 16.331 47.1968 16.9241 47.4927C17.2138 47.6336 17.5586 47.8027 17.6828 47.8732C18.0138 48.0423 44.7586 48.0423 45.0759 47.8732C45.2 47.8027 45.531 47.6477 45.7931 47.5209C46.3862 47.2673 47.2552 46.3936 47.5172 45.8159C48 44.7027 48 44.5336 48 30.9637C48 18.0421 47.9862 17.4643 47.7379 16.7457C47.3379 15.6325 46.6897 14.9279 45.5172 14.3502C45.1034 14.1529 44.2759 14.1106 39.1724 14.0401L33.3103 13.9697L33.2414 8.3332C33.1724 3.44354 33.1448 2.62625 32.9379 2.20351C32.6207 1.51304 32.0414 0.907122 31.2414 0.42802L30.5517 0.0193745L17.0345 0.00528332C9.6 -0.00880791 3.36552 0.00528332 3.17241 0.047557ZM27.9172 4.88085C28.6345 5.14858 28.6897 5.50086 28.6897 9.7705C28.6897 11.9265 28.6345 13.7583 28.5793 13.857C28.5103 13.9697 27.0345 14.0261 23.1034 14.0683C17.7931 14.1106 17.7103 14.1106 17.0759 14.4347C16.3724 14.8011 15.4069 15.7734 15.131 16.4075C15.0069 16.6752 14.9517 18.5352 14.8966 22.9176L14.8276 29.0473L10.3448 29.0896C7.87586 29.1037 5.72414 29.0896 5.54483 29.0473C5.37931 29.005 5.11724 28.7655 4.96552 28.5118C4.70345 28.075 4.68966 27.7509 4.68966 16.957C4.68966 4.93721 4.67586 5.19085 5.42069 4.88085C5.83448 4.71175 27.4759 4.69766 27.9172 4.88085ZM42.8828 19.1975L43.3103 19.5639V31.0201V42.4621L42.9517 42.8426L42.5793 43.209H31.4345H20.2897L19.9034 42.8708L19.5172 42.5326L19.4897 31.2033C19.4483 19.0707 19.4345 19.3807 20.1379 19.0143C20.4 18.8734 22.9379 18.8312 31.4759 18.8312H42.4552L42.8828 19.1975Z" fill="black"/>
</g>
<defs>
<clipPath id="clip0_372_13">
<rect width="48" height="48" fill="white"/>
</clipPath>
</defs>
</svg>
